<mxfile host="app.diagrams.net" modified="2024-01-09T17:45:55.454Z" agent="Mozilla/5.0 (X11; Linux x86_64; rv:109.0) Gecko/20100101 Firefox/115.0" etag="c3yA7VCh7MtSMLwsreDz" version="22.1.16" type="github">
  <diagram name="Page-1" id="38b20595-45e3-9b7f-d5ca-b57f44c5b66d">
    <mxGraphModel dx="1420" dy="842" grid="1" gridSize="10" guides="1" tooltips="1" connect="1" arrows="1" fold="1" page="1" pageScale="1" pageWidth="1100" pageHeight="850" background="none" math="0" shadow="0">
      <root>
        <mxCell id="0" />
        <mxCell id="1" parent="0" />
        <mxCell id="Ly12AFPvcVP7JtH-92zA-6" value="" style="verticalLabelPosition=bottom;html=1;verticalAlign=top;align=center;shape=mxgraph.floorplan.wall;direction=south;labelBackgroundColor=none;rounded=1;" vertex="1" parent="1">
          <mxGeometry x="603" y="240" width="10" height="550" as="geometry" />
        </mxCell>
        <mxCell id="Ly12AFPvcVP7JtH-92zA-4" value="" style="verticalLabelPosition=bottom;html=1;verticalAlign=top;align=center;shape=mxgraph.floorplan.wall;direction=south;labelBackgroundColor=none;rounded=1;" vertex="1" parent="1">
          <mxGeometry x="425" y="240" width="10" height="550" as="geometry" />
        </mxCell>
        <mxCell id="Ly12AFPvcVP7JtH-92zA-5" value="" style="verticalLabelPosition=bottom;html=1;verticalAlign=top;align=center;shape=mxgraph.floorplan.wall;direction=south;labelBackgroundColor=none;rounded=1;" vertex="1" parent="1">
          <mxGeometry x="781" y="240" width="10" height="550" as="geometry" />
        </mxCell>
        <mxCell id="Ly12AFPvcVP7JtH-92zA-7" value="&lt;div&gt;70&lt;/div&gt;" style="shape=dimension;direction=south;whiteSpace=wrap;html=1;align=center;points=[];verticalAlign=top;labelBackgroundColor=none;horizontal=0;spacingTop=-15;rounded=1;" vertex="1" parent="1">
          <mxGeometry x="370" y="650" width="40" height="140" as="geometry" />
        </mxCell>
        <mxCell id="Ly12AFPvcVP7JtH-92zA-9" value="&lt;div&gt;70&lt;/div&gt;" style="shape=dimension;direction=south;whiteSpace=wrap;html=1;align=center;points=[];verticalAlign=top;labelBackgroundColor=none;horizontal=0;spacingTop=-15;rounded=1;" vertex="1" parent="1">
          <mxGeometry x="370" y="509" width="40" height="140" as="geometry" />
        </mxCell>
        <mxCell id="Ly12AFPvcVP7JtH-92zA-10" value="&lt;div&gt;70&lt;/div&gt;" style="shape=dimension;direction=south;whiteSpace=wrap;html=1;align=center;points=[];verticalAlign=top;labelBackgroundColor=none;horizontal=0;spacingTop=-15;rounded=1;" vertex="1" parent="1">
          <mxGeometry x="370" y="369" width="40" height="140" as="geometry" />
        </mxCell>
        <mxCell id="Ly12AFPvcVP7JtH-92zA-11" value="65" style="shape=dimension;direction=south;whiteSpace=wrap;html=1;align=center;points=[];verticalAlign=top;labelBackgroundColor=none;horizontal=0;spacingTop=-15;rounded=1;" vertex="1" parent="1">
          <mxGeometry x="370" y="240" width="40" height="129" as="geometry" />
        </mxCell>
        <mxCell id="Ly12AFPvcVP7JtH-92zA-12" value="" style="line;strokeWidth=4;html=1;perimeter=backbonePerimeter;points=[];outlineConnect=0;labelBackgroundColor=none;rounded=1;" vertex="1" parent="1">
          <mxGeometry x="432" y="645" width="354" height="4" as="geometry" />
        </mxCell>
        <mxCell id="Ly12AFPvcVP7JtH-92zA-13" value="" style="line;strokeWidth=4;html=1;perimeter=backbonePerimeter;points=[];outlineConnect=0;labelBackgroundColor=none;rounded=1;" vertex="1" parent="1">
          <mxGeometry x="432" y="507" width="354" height="4" as="geometry" />
        </mxCell>
        <mxCell id="Ly12AFPvcVP7JtH-92zA-14" value="" style="line;strokeWidth=4;html=1;perimeter=backbonePerimeter;points=[];outlineConnect=0;labelBackgroundColor=none;rounded=1;" vertex="1" parent="1">
          <mxGeometry x="432" y="367" width="354" height="4" as="geometry" />
        </mxCell>
        <mxCell id="Ly12AFPvcVP7JtH-92zA-15" value="89" style="shape=dimension;whiteSpace=wrap;html=1;align=center;points=[];verticalAlign=bottom;spacingBottom=3;labelBackgroundColor=none;rounded=1;" vertex="1" parent="1">
          <mxGeometry x="430" y="795" width="178" height="30" as="geometry" />
        </mxCell>
        <mxCell id="Ly12AFPvcVP7JtH-92zA-16" value="89" style="shape=dimension;whiteSpace=wrap;html=1;align=center;points=[];verticalAlign=bottom;spacingBottom=3;labelBackgroundColor=none;rounded=1;" vertex="1" parent="1">
          <mxGeometry x="608" y="795" width="178" height="30" as="geometry" />
        </mxCell>
        <mxCell id="Ly12AFPvcVP7JtH-92zA-17" value="177" style="shape=dimension;direction=west;whiteSpace=wrap;html=1;align=center;points=[];verticalAlign=top;spacingTop=-15;labelBackgroundColor=none;rounded=1;" vertex="1" parent="1">
          <mxGeometry x="430" y="203" width="356" height="32" as="geometry" />
        </mxCell>
        <mxCell id="Ly12AFPvcVP7JtH-92zA-18" value="275" style="shape=dimension;direction=north;whiteSpace=wrap;html=1;align=center;points=[];verticalAlign=bottom;labelBackgroundColor=none;horizontal=0;spacingBottom=3;rounded=1;" vertex="1" parent="1">
          <mxGeometry x="795" y="240" width="40" height="550" as="geometry" />
        </mxCell>
      </root>
    </mxGraphModel>
  </diagram>
</mxfile>
